<svg id="Layer_1" data-name="Layer 1" xmlns="http://www.w3.org/2000/svg" viewBox="0 0 437.89 337.38"><defs><style>.cls-1{fill:#1d1d1b;}</style></defs><title>华盛logo</title><path class="cls-1" d="M447.28,168.1a2.1,2.1,0,0,1,.46-1.85,2.36,2.36,0,0,0,1.77-1.84c.56-.37.21-1,.37-1.45.17,0,.44,0,.51-.15,1.41-2.33,4.09-3.05,6-4.73.22-.19.49-.52.71-.5,2.77.26,5-1.11,7.23-2.42a3.55,3.55,0,0,1,1-.24c0,.84.53,1,1.2,1a13.77,13.77,0,0,1,4.49,1.45,45,45,0,0,0,5.42,2.61c1,.35,1.75.27,2.32-.67.82-.12.88.84,1.48,1a2.84,2.84,0,0,0,1.7,1.19c.58.21,1.32.37,1.24,1.27-1.07,0-1.25.77-.92,1.43.52,1,1.33.67,2,.07l1.8.28a3.36,3.36,0,0,1,2.12.88c1.48,2.15,4.21,2.93,5.63,5.13,0,.21.1.38.35.38h0c0,.12,0,.24,0,.36.68,1.6.88,3.47,2.52,4.55l.74.33a.33.33,0,0,0,0,.26,1.9,1.9,0,0,0,.31,1.43,1.93,1.93,0,0,0-.52,2.16,19.4,19.4,0,0,1-.29,11,2.84,2.84,0,0,0,.39,2.77,1.88,1.88,0,0,1,0,2.49c-.43.7-1.26,1.48-.67,2.3.89,1.24.32,2.31,0,3.44a5.54,5.54,0,0,0-.28,4c.86,2.7,1.2,5.9-.52,8.69-.9,1.46,0,3.4-1.36,4.77-.22.22-.38,1.19.75,1.18.95,0,.72.69.39,1.26-1.88.63-2.44,2.08-1.41,3.66.17.79.39,1.48,1.36.69.65.41.25,1.09.41,1.63-2-.11-2.44.86-2.12,2.7a14.5,14.5,0,0,1-.26,3.26c-.05.75-.67,1.6.63,2.1.48.18.63,1.2-.44,1.4-.49-.32-1-.81-1.47,0s.08,1.39.69,1.87c0,.22,0,.46-.29.58s-.93-.89-1,.09c-.08.7.65.7,1.2.67l.9,0c.53.39.13.79,0,1.18l-2,.17c1.27,1.26,1,2.64.87,4-.14,1.2-1.35,2.27-.37,3.62.21.29,0,.81-.59.88-1.33.17-1.13,1.31-.83,1.94.75,1.56.21,2.71-.77,3.82a3.19,3.19,0,0,0-.76,3.2c.23.84.34,1.61-.91,1.92-.85.21-1.14.91-.63,1.88a5.21,5.21,0,0,1-.53,5.38,3.31,3.31,0,0,0-.89,2.6,5.38,5.38,0,0,0,1.52,3.7,3.31,3.31,0,0,0,1.53,1.69,2.11,2.11,0,0,0,1.43.25l.42.09-.13.87-.62.05-.41.08c-.38.84.2,1.43.59,2,.53.82.67,1.44-.59,1.7l2.63.68a2.21,2.21,0,0,0,1.41.45l0,0,0,.82c-.23,2.2-.33,4.36,2.2,5.45.93.89.61,2.32,1.74,3.33a10.54,10.54,0,0,0,2.62,2.16v0a.36.36,0,0,0,.38.38l0,0a.39.39,0,0,0,.39.38l0,0,.39.39,0,0c.29.81,1.09,1.1,1.66,1.61.23.2.59.35.81,0s0-.66-.31-.92a2.18,2.18,0,0,0-.66-1.44l-.38-2.22,1.07.08,1.83,1.36c.19.65.37,1.32,1.17,1.5-.55.92.29,1.55.52,2.29s.2,1.82,1.05,1.48c.69-.27-.08-1.27-.23-1.93,0-.16-.21-.28-.32-.43.09-.52-.17-1.12.35-1.55l1.13,1.23.74,1.8.46,1.89a28.18,28.18,0,0,0,2.85,10.89,9.31,9.31,0,0,1,1.2,4c0,.72.27,1.51,1.34,1.31a1.14,1.14,0,0,1,.4.95c-.39.39-1.26-.28-1.42.72-.44,2.74-1.13,5.44-.31,8.24a8.56,8.56,0,0,1,.25,4c-.26,1.35.54.78,1.1.72l.13.68q0,.72,0,1.45a65.74,65.74,0,0,1-2,9.28,4.75,4.75,0,0,0-.13,2.88c.62,1.74.06,3.16-.71,4.69-1,2.05-3.05,3.77-2.37,6.46a.36.36,0,0,1-.15.31c-1.49.6-.94,1.91-1,3a35.83,35.83,0,0,1-.29,4.19c-.28,1.39-.22,3.12-1.51,4a2,2,0,0,0-1,2.08c-.06,4.45-.33,8.9,0,13.35.1,1.2-.37,1.41-1.36,1s-1.71-1.13-2.2.48c-.18.57-1,.63-1.46.43-1.42-.65-1.66,1.07-2.53,1.17-1.59.19-1.22,1.27-1.29,2.19-.19,2.33-.56,2.66-2.93,2.65-1,0-2.09-.09-2.79.61-1.08,1.08-2,1.75-3.4,0-.05,1.66,0,3.11-1.9,3.21h-.14l-.57-.29h-1.12l-1.45-.24-.42-.57c-.45-1.34-2-1.34-2.7-2.11a2.25,2.25,0,0,0-2.19-.69c-.9.08-1.8.2-2.7.31l-1.17-.8,0,0-.38-.4,0,0-.38-.79c-.21-.5-.43-1-.64-1.51-2.89-7.06-5.43-14.19-5.23-22a9.28,9.28,0,0,0-.35-3.25c-1.29-3.87-2.26-7.82-3.17-11.79-.43-1.89-1.33-3.93-.8-5.71.73-2.48.06-4.55-.84-6.63-1.42-3.31-2.79-6.61-2.85-10.28.51-1.62-.84-2.55-1.7-3.23-.7-.56-1.19.9-1.69,1.51a53,53,0,0,1-17.44,14c-2.26,1.12-4.64,2.21-7.19,1.78-3.9-.65-8-.19-11.7-2a2.55,2.55,0,0,1-1.48-1.78c-.67-2.92-2.78-4.85-4.68-6.94a10.56,10.56,0,0,1-1.14-3.75c.46-.48.31-1,.17-1.56.37-1.33.65-2.65-.81-3.56-.41-.26-.93-.61-1.32-.17s.21.77.5,1.09.78.42.48,1.13h-2.28a2.9,2.9,0,0,0-1.85-1.29l-.41-1.08a1.84,1.84,0,0,0-1.06-2.2c-.49-.47-1-.94-.61-1.71a1.67,1.67,0,0,0-.45-2l-.26-1.28c0-.13,0-.26.06-.39l1.78-.15c.77.48.3,2.32,1.55,1.92,1-.33.33-1.69.36-2.6.31-.72-.36-1.8.81-2.21.78,1.33,1,.16,1.21-.32a7.93,7.93,0,0,0,0-4.27c-.09-.5-.31-1.17.2-1.51s.78.44,1.25.5c.7.8,1,.24,1.27-.38a4.22,4.22,0,0,0,.07-2.15,1,1,0,0,0-.61-1.12.78.78,0,0,0-.4-.72q0-.36,0-.73c0-.84.34-1.25,1.23-1l3.31.93c.65.18,1.29.86,1.73-.48a3,3,0,0,1,2.18-1.27c1.36-.07,3.1-2.4,3.11-4.15a10.61,10.61,0,0,1-5.57,3.17c-1.49.33-3,.67-4.47.93-3.39.6-6.45,1.69-8.48,4.77a5.15,5.15,0,0,1-4.22,2.21c-.71,0-1.47-.18-1.26,1.1.17,1.07-.6.49-1,.34l0,0c-.75-1.15-1.92-1.11-3.06-1s-2.38.31-3.57.47l-.78-.08a8.06,8.06,0,0,0-7,0,2.76,2.76,0,0,1-1.07.21,5.18,5.18,0,0,0-4.24,2.15,21,21,0,0,1-4.23,4l-1.74.46c-.32-.63,0-1.82-.7-1.91-.91-.11-.65,1.09-.94,1.69-1.23,2.56-3.11,4.62-5.89,5a11.32,11.32,0,0,0-4.19,1.38c-6.76,3.81-13.45,7.78-21.58,7.84-.34,0-.86.12-1,.36-1.36,2.29-3.92,2.73-6,4a17.31,17.31,0,0,0-4.6,3.88c-3.87,4.8-9,6.4-14.93,6h0c-.55-.51-1.21-.35-1.86-.34l-5.87-1.09a.31.31,0,0,0-.27,0l-4.11-1.62L294.44,336l-3-1.94c-.52-1.64-1.5-2.61-3.36-2.23-.88-.8-1.33-2-2.49-2.55h0l0-.42A9.63,9.63,0,0,1,284,323.1c.14-2.58.49-2.76,3-2.08,2.82.77,5.42-.25,8-1.3a28.16,28.16,0,0,0,7.72-5.17c3.63-3.21,7.41-6.1,12-7.86,2.46-.94,2.4-1.26,1-3.41A55.62,55.62,0,0,1,311.6,295a81.2,81.2,0,0,0-5.48-10.49,31.23,31.23,0,0,1-2.84-6.32,30.31,30.31,0,0,0-2.86-6.11,27.51,27.51,0,0,1-2.92-6.88,3.8,3.8,0,0,1,0-2.51,3.2,3.2,0,0,0-.18-3.29c-.16-.23-.34-.7-.22-.84,1.16-1.45,1.62-2.89.4-4.57-.22-.31.35-.56.66-.73a9.22,9.22,0,0,1,4.33-1.31l.1.79c-.22.68-.26,1.23.55,1.63a8.9,8.9,0,0,0,4,1.31c3,1,6.11.68,9.19.74a2.48,2.48,0,0,0,2.39-3.2C318,249.58,317,246,316,242.46a64.18,64.18,0,0,1-2.2-9.87c0-.37,0-.73-.06-1.1a11.54,11.54,0,0,0-.28-3.61q-1.71-8.18-3.33-16.39a160.44,160.44,0,0,0-3.67-16.27l-.11-3.72.1-2.17c.53-.49.34-1.14.35-1.73.09-4.77-1.48-9.2-2.88-13.65l-.09-.73c0-.63.23-1.28-.24-1.84-.14-3.25,1-6.34,1.19-9.55,1.06-3.54,3.92-5.22,7-6.55a39,39,0,0,1,8.28-2.17c2.63-.51,4.17-1.63,4.66-4.44.68-3.87,2.32-7.54,2.71-11.51.09-.9.43-1.59,1.51-.85a7.29,7.29,0,0,0,3.14,2.11l.46.37,0,0,.4.4,0,0c1.06,1.52,1.13,3.38,1.79,5,.36.89.66,2.49,2.3,1.21a6.63,6.63,0,0,0,2.49-1.28,75.7,75.7,0,0,0,16.69-7.8,34.58,34.58,0,0,1,10-4.3,10.11,10.11,0,0,0,3-1.3c2.05-1.51,2.1-1.6.69-3.63-1.79-2.58-2.3-5.68-3.6-8.46l-.35-.47a.31.31,0,0,0,0-.22,6.07,6.07,0,0,0-1.48-3.69c-.88-2.76-3.32-3.84-5.55-5.14l0,0-.75-.68c-1.5-2.06-2.64-4.38-4.37-6.29l-.39-.39,0,0-.39-.39h0a.67.67,0,0,0-.41-.72l0,0-.39-.39,0,0c-.44-1.52-1.73-2.3-2.86-3.19-3.31-2.6-7-4.73-9.85-7.84-4-4.48-9.33-7.2-14.08-10.67a2.42,2.42,0,0,0-1.39-1.11c-.29-.44-.51-.95-1.07-1.14-.1-.44-.17-.86.44-1,.33-.07.69-.46.5-.6-1.25-.92,0-2-.24-2.93-.15-.58.36-.7.72-.88,1.1-.58,1.29-1.33.14-2.51,2.63.52,3.58-2.8,6.08-1.91a11,11,0,0,0,6.89,0l1.18-.06a9,9,0,0,1,4.07.88c2.26,1,4.64,1.17,7,1.55,2.16.34,4.32,1,6.54,1.4,1,.17,1.84,1.13,2.75,1.73.46.46.76,1.15,1.57,1.13h0a10.39,10.39,0,0,0,4.05,4h0a2.15,2.15,0,0,0,1.48,1.11h0l.76.48c2.14,1.31,4.79,1.68,6.61,3.58-.34,1.88-.25,3.5,2.19,3.75l.83,1.06a6.9,6.9,0,0,1,.28,1.61c-.16,2.58,1.11,4.25,3.29,5.38a19.27,19.27,0,0,0,3.26,2.64c.15,1.2.22,2.41.48,3.58s.9,1.54,2,.86a11.45,11.45,0,0,1,3.64,2.7l2.88,5.53a48.46,48.46,0,0,1,.27,5.23c.08.9,0,2.06,1.4,2.13,1.11,1.47,1.41,3.28,2,5a3.45,3.45,0,0,0,2.74,2.52c1.94,1.15,4.31,1.36,6.14,2.77l.26.75a2,2,0,0,0,.59,1.95,6.67,6.67,0,0,1,1.72,2.42c-.5,1.86-1.7,3.46-2,5.41-.23,1.36-.18,2.52,1,3.4,1.06,2,2.12,3.95,3.2,5.92.41.76.88,1.48,1.91,1.42v0c0,.25.16.36.39.39l0,0,.39.37.71.73.56,1.49c.2,1.79.22,3.66,2,4.8v0l.38.54a16.38,16.38,0,0,1,3.61,6.28c.63,2.3,2.44,3.57,3.75,5.28a1.16,1.16,0,0,0,1.11.61l.11.1c.09.76-.44,2,.28,2.18,1.81.36,2.14,2,3.19,3,0,.59,0,1.19,0,1.78,0,.92.45,1.46,1.47,1.27l.79.16.41.86a6.08,6.08,0,0,0,.44,3.54c.68,1.82,2.5,2.91,3,4.86a1.45,1.45,0,0,0,1.56,1.25c.74.2,1,.88,1.38,1.4.27,1.44,0,3,.51,4.35.32.82.71,1.89,1.84.64l.71.07.22,1.53c-.12.79-1.46,1.39-.41,2.36a1.53,1.53,0,0,1,.32,1.51c-.23,1.71.4,2.21,2,1.52l.87,1.13c0,1.19,0,2.39,0,3.58,0,2.37,0,2.37,2.2,1.93l.17.72.22,1.07a3,3,0,0,0,.43,2.27c1.51,1.41,1.27,3.31,1.68,5,.27,1.15.66,2.06,1.91,2.34a.68.68,0,0,0,.37.65c0,.21.12.39.38.4l0,0c.68,2.8,2.26,5.23,3.33,7.87.48,1.19.84.18,1.17-.22a.59.59,0,0,0,.22-.71l.09-.37a3.26,3.26,0,0,0,.63-2.55c0-.24,0-.48,0-.71-.13-1,.77-2.46-1-2.93l-.21-1.17c.07-1,.17-1.92.21-2.87,0-.57,0-1.1.75-1.2,1.37.22,2-.35,1.77-1.73a8.4,8.4,0,0,0,.38-1.33c0-.36.29-.93-.28-1s-.57.49-.8.81l-.78.1v-1.15a13,13,0,0,0,.68-4.75l.11-1.13a.62.62,0,0,0,.27-.69l.5-.06c.48.47.16,1.48,1.4,1.81-.26-2.19.43-4.16.36-6.2,0-.76.36-1.86-.43-2.18-1.16-.46-1-1.38-1.2-2.18l.18-.75c.4-.26.36-.65.29-1l.52-.4c.22-.09.52-.11.65-.27a5,5,0,0,0-.17-5.64,1.91,1.91,0,0,1-.48-1.5c0-1.22,0-2.44,0-3.65-.06-3,.21-6.08-.78-9-.06-.65.19-1.5-.51-1.84-2.75-1.3-5.28-3.41-8.66-2.63l-1.47-.7m56.84,150.27c-.34,2,.37,4.27-1.05,6.15-.31.42,0,.94.35,1.32a1,1,0,0,0,.57.36c.26,0,.37-.25.39-.51.14-2.45,1.06-4.88.18-7.36a45.28,45.28,0,0,0-1-5.93c-.07-.42-.14-.9-.71-.91s-.77.51-.84,1a3.9,3.9,0,0,0,.85,2.91,6,6,0,0,1,1.28,3M346.8,272.51c0-.28,0-.56-.25-.73-.19-.92-.11-2.14-1.42-2.14-1,0-3.59,2.92-3.42,4,.3,1.88.12,3.93,1.52,5.51a39,39,0,0,0,5.19,8.21,3.54,3.54,0,0,0-.19-2.6,13.46,13.46,0,0,0,.06-2.14c-.13-1,.52-2.27-.65-3.1l-.23-4.36a3,3,0,0,0-.5-1.87l-.11-.73M495,331.91a6.89,6.89,0,0,0,.59-2.6c.31-1,.43-2,1.64-2.53a2.4,2.4,0,0,0,1.24-2.92c-.59-1.1-.12-1.75.18-2.58.73-1.1.36-2.21,0-3.31a13.42,13.42,0,0,1-.79-3.73,45,45,0,0,0-4.64-19.9c-.94-1.89-2-3.78-2-6a1.15,1.15,0,0,0-.56-1.1c-1.23-.58-1.33-1.79-1.76-2.84-.52-1.29-.6-2.75-1.55-3.86-.15-.48,0-1.07-.46-1.43,0-.5,0-1-.37-1.42l-.33-.4c0-.41-.06-1,.63-.57.34.21.38.83,1,.89-.83-2.6-1.18-2.69-3.15-1.11a7.83,7.83,0,0,0-1.79,2.24c-.47.8-.22,1.37.65,1.67-.68.56-1.64,1-.76,2.15.21.27-.21.45-.52.56a1.38,1.38,0,0,0-.92,1.89c.6,1.62-1.14.8-1.41,1.45-.34.84.82,2.3-.13,2.46-2.15.35-.86,1.55-.85,2.37s.68,1.68.23,2.45c-1.18,2-1.16,2.15,1.08,2.57.43.4.2.93.29,1.4-1.17,2.08,1.07,3.89.48,6-.08.29.72.28,1.09.44a.5.5,0,0,0,.09.35c-.83,4.17,1,7.56,3.2,10.85l.76,0c.76.14,1.08.74,1.41,1.33-.15,1,.46,1.87.63,2.82-.3.66-1.89.18-1.42,1.38s1.27.47,2,.12c0,.35,0,.79-.14,1-.64.92-.86,1.51.6,1.8.65.13.68.76,0,1.19-.32.21-.87.21-.82.84.56.4,1.79.47,1.66,1.14-.29,1.51.39,2.42,1.15,3.56.57.85,0,2-.49,3.22,1.9-.5,2.15.49,2.07,1.8l.32.57-.06.07.06.08c.41,1.23-.82,2.07-.7,3.28a4.38,4.38,0,0,0,1.47-2.87c.46-.47.37-1.1.47-1.67l.24-1.26c.54-.54.31-1.22.36-1.85M366.29,266.27c.67,0,.83.33.78.91s-.06,1-.06,1.46.1.81.54.81.53-.42.53-.8c0-.67,0-1.34,0-2a18.6,18.6,0,0,0,.66-6.36c.09-.68.7-1.33.11-2a2.58,2.58,0,0,1,.32-1.37c.19-.39.43-1-.18-1.27s-.7.3-1,.57c-.9.8-1.76,1.65-2.73,2.37-2.61,1.94-2.63,1.92-.5,4.34l.2.48c0,.84,0,1.69.08,2.53.06,1.26.64.88,1.24.38m20.33-108.13c-.48-.84-.59-2.57-2.14-1.23a27.28,27.28,0,0,0-3.28,3.67,2.38,2.38,0,0,0-.77,2.2c.72-.06.85-.61,1.2-.92.54-.49.56-.48.9.58a.28.28,0,0,0-.17.29c-3.27,3.94-5.11,8.86-8.89,12.59,1.79.48,2.74-.6,3.83-1.3a2.38,2.38,0,0,0,1.33-.58c.43.14.76-.11,1.11-.29l.46-.32h0c.63,0,1.32.17,1.83-.41,3.15-1,6.51-1.51,9.27-3.55,1.39-.63,2.23-1.39.79-2.84-.22-.22-.2-.66-.3-1a2.35,2.35,0,0,0-.86-2.4c-1.26-1.11-2.48-2.25-3.72-3.38l-.59-1.12m-73.86,25.68c-1.32,2.95-.51,6.35-2.3,9.32-1,1.66-.42,4,.18,6,.23,2.5,1.75,4.5,2.65,6.75a6.66,6.66,0,0,1,.67,4c-.29,1.44.56,2.77,1.05,4.1-.06-1.57,1.92-2.55,1.17-4.19,0,0,.09-.09.08-.13a1.62,1.62,0,0,0-.11-.27c0-.35,0-.69-.06-1a14.6,14.6,0,0,0,.14-5.12c.1-6.51.15-13,1.34-19.46.43-2.31.26-4.65.75-7,.77-3.67,1.89-7.29,2.15-11.07.46-.55.28-1.18.23-1.79l.09-1.07c.14-.82-.39-.87-1-.88a20.29,20.29,0,0,0-6.17.64c-3,.92-4.07,2.53-3.78,5.74a16.6,16.6,0,0,0,1.78,7.54l0,.09a38.16,38.16,0,0,1,1.18,7.76m118.78,77a1.51,1.51,0,0,0,1.75-.18c2.48-.9,5.08-.21,7.88-.35-2.07-3.05-3-6.26-4.6-9.12-.48-1.18-.58-2.51-1.38-3.57-.24-.74-.51-1.46-.69-2.21-.11-.46-.23-.85-.76-.86-.76,0-.63.6-.63,1.06a28.31,28.31,0,0,1-1.21,7.18c-.6,2.17-1.12,4.36-1.71,6.53-.34,1.25.1,1.72,1.35,1.52M414,205.43c.25.34.45,1.13.93.68s1.07-1.16.38-1.92a12.47,12.47,0,0,1-1.84-3.54,37.5,37.5,0,0,0-4.39-7.32c-.39-.83-.76-1.65-1.15-2.48-.19-.4-.44-.75-1-.71s-.6.39-.67.75c-.36,2-1.61,3.38-2.84,4.83a4.64,4.64,0,0,0-1.48,2.68,4.81,4.81,0,0,1-2,3.54c-1.08,1-2.26,1.91-1.57,3.72.24.63-.41,1.09-.86,1.5-3,2.71-4.19,6.46-6.14,9.82a3.39,3.39,0,0,0,3.28-.6,2.47,2.47,0,0,0,1.93-.62c.39-.12.9.08,1.15-.43a4.49,4.49,0,0,0,3.64-2.34c.49-.84,1.1-1.6,1.61-2.42.61-1,1.12-2.06,2.64-1.49a1.07,1.07,0,0,0,1.25-.57c1.4-2.37,3.76-2.88,6.2-3.25l.87.16m-74.17,15.47c.34.67,1.17,1,1.13,2-.14,3,.07,5.95-1.12,8.77-.19.44-.5.92.17,1.21s1,.67,1.61,0,1.07-1.14,1.61-1.71c6.23-2.94,9.33-8.63,12.55-14.23l2.39-2.64c2.36-2.08,5-4,6-7.21-1.25,1-1.95,2.8-4,2.46-.12,0-.34.33-.44.55-1.17,2.4-3.28,3.43-5.69,4.17-2.09.64-4.13,1.48-6.18,2.25a2.36,2.36,0,0,1-1.76.22c-2-.8-3.91-.32-5.82.43-.85.33-1.68.68-1.72,1.64a1.88,1.88,0,0,0,1.3,2.15M386.37,261c2.62-5.32,5.31-10.61,6.83-16.38.21-.57.42-1.13.61-1.7s.57-1,.19-1.35a1.39,1.39,0,0,0-1.56-.1,13.48,13.48,0,0,1-5.89,1c-1.89,0-3.79,2.16-3.29,3.8,1.19,3.85.85,7.74.57,11.63-.1,1.4.06,3-1.29,4a.89.89,0,0,0-.2.43c1.68.94.1,1.76-.19,2.46-1.06,2.51-2,5-1.27,7.79.09.35.14.81.55.87s.63-.31.82-.63a15.07,15.07,0,0,0,1.37-3.58c.82-2.8,1.29-5.71,2.74-8.3M364.45,155.2a10.69,10.69,0,0,0,2.31-3c.18-.36.61-.77.22-1.15s-.9-.06-1.28.26a24.86,24.86,0,0,1-5.61,3.42,126.84,126.84,0,0,1-12.53,4.6c-4.13,1.42-8.45,1.86-12.67,2.85-1.18.28-1.89.76-1.94,2.18-.24,7.37.25,14.77-.77,22.11a2.1,2.1,0,0,0,1.83,2.65c.29.82-.57,2.19.47,2.42s.92-1.36,1.53-2a2.63,2.63,0,0,0,.33-.64c7.37-10.58,16.52-19.71,24.42-29.85,1.19-1.31,2.73-2.27,3.7-3.79m76.31,97.29c-.2,1-.24,2,.62,2.62.36.24.88-.42,1-.85.36-1.29-1.08-1.13-1.62-1.78m10-87.45c2.24,1,2.43.82,2.29-1.4a7,7,0,0,0-2.29,1.4m58.39,160.12a2.88,2.88,0,0,0-2.41-.79.53.53,0,0,0-.08.44c.58.79,1.36.51,2.49.35" transform="translate(-78.7 -62.75)"/><path class="cls-1" d="M271.31,151.95l2.18,0,5.47,1.49c.37.4.74.79,1.1,1.19s.22.62-.27.71l-.82,0a5.12,5.12,0,0,0-3.64-.4,27.26,27.26,0,0,0-8,2.33c-11.87,4.79-24.59,6-36.91,8.93-2.47.58-4.32,1.58-5.32,3.91a34.23,34.23,0,0,0-1.43,3.94c-1,3.51-1.88,7-4.46,9.87-1.54,1.71-1.3,2.92,0,4.51l.51,3.14q0,1.68,0,3.36c-.09.31-.18.62.23.79l.82-.1.72-.34a.8.8,0,0,0,.77-.28l.4-.07a3.54,3.54,0,0,0,2.52-1.07c5.51-2.13,10.68-5,16.09-7.39a69.21,69.21,0,0,1,10.29-3.73.64.64,0,0,0,.72-.23l1.1-.16a43.87,43.87,0,0,1,16.12,4.14,15.76,15.76,0,0,1,2.05,3.41l.1.66.14,1c0,.65.18,1.31-.53,1.8-2,1.37-3,3.47-4,5.54a14.3,14.3,0,0,1-2.91,4.16,39.75,39.75,0,0,1-15.43,9.44c-1.44.45-2.78,1.24-4.2,1.77s-1.91,1.34-.88,2.66l.27.76c.69,2.09,1.29,4.26,4,4.52l.69.64c.27,3,1.24,4,3.81,4.31l2.46.17h0l4.23,1.23.38.07.13,0h.13a1.74,1.74,0,0,0,1.56.72h0a.76.76,0,0,0,.75.36h0a.74.74,0,0,0,.74.36h0a.73.73,0,0,0,.73.36h0a4.5,4.5,0,0,0,2.56,1.45h0l.32.34.4,0h0l.38.37h0l1.85,2.19.35.39h0l-.09.59c-1,2.47-1,2.7.85,3.07l.46,1.89c.33,1.49.57,2.75-.92,4.06a2.76,2.76,0,0,0,0,4.1c.32.33.84.9.46,1.26-1.57,1.46-2.38,3.73-4.84,4.26-1,.23-3-.46-2.69,1.9a.94.94,0,0,1-.46.16c-4.58.11-8.91,2.17-13.56,1.77-5-.43-9.19,1.35-12.89,4.58-.91.8-1.82,1.92-3,1.95-1.55,0-2.25,1-3.1,1.93-.71.82-1.3,2.08-2.79,1.13a.62.62,0,0,0-.9.39,5.72,5.72,0,0,1-3.17,3.13,1.09,1.09,0,0,0-.58,1.06,22.06,22.06,0,0,1-3.43,9.57c-2.54,4.32-3.47,8.81-2,13.69-.49,1.71,0,3.51-.53,5.24a7.77,7.77,0,0,0,.16,3.6c.09.47.15,1.26,1,.62,1.24,0,.56,1.05.85,1.57-.38,1.32-.78,2.64-1.15,4-.56,2-.55,2,1.42,1.77l.35,1.14c-2.61,2.5-2.93,5.75-3,9.08-.09,6.4,1.06,12.74.88,19.16,0,1.81-.5,4.07,1.54,5.45.1.07.06.47,0,.67-1.49,3.46-.87,7.05-.66,10.61.13,2.36.79,4.66.32,7.08a3,3,0,0,0,1.64,3.37l0,0,.39.4a2.07,2.07,0,0,0,.83,1.09c-1.46,2.25-.92,4.51-.08,6.8a3.78,3.78,0,0,1,0,1.25c-.66,1.46-2.51,2.09-2.82,3.75a11.58,11.58,0,0,1-4.18,7c-.7.59-1.22,1.15-2.19.79s-1.16.06-1.22.94a5.11,5.11,0,0,1-.57,2.82c-.78,1.13-2.21-.28-2.75.63s.32,2.26-1.17,2.74l-.49.06c-.52-1.51-1.31-2-2.67-.79a5,5,0,0,1-3.23,1.13c-5,0-9.79,1.82-14.73,2.49l-1,.14-.71,0-.46-.06h-.16c-.2-1.22-.59-2.29-2-2.64a.78.78,0,0,0-.75-.29c-.41-.25-.32-.7-.42-1.08l.07-.75c.38-2.05-1.26-2.36-2.56-3v0a.69.69,0,0,0-.39-.72A43.11,43.11,0,0,1,173,385a21.11,21.11,0,0,0-2.4-5.06c-.54-1.33-1-2.7-2.73-3v0l-.36-.49a2.66,2.66,0,0,0-1.08-1.37l-.43-2.55a4.32,4.32,0,0,0-.2-2.14,123.51,123.51,0,0,0-6.35-10.7v0a2.14,2.14,0,0,0-.69-1.92l-1.11-8c-.16-1.07.25-1.64,1.39-1.56.53.1.78-.09.66-.65.12-.39,0-1.34.59-1,2,1.25,2-.61,2.51-1.51a5.82,5.82,0,0,0,.4-1.72c.45-2.82.1-5.65.17-8.48q0-1.08,0-2.16.21-4.2.41-8.4l.36-3.76c.59-3,1.19-6-.37-8.94l-.43-1.1c-.33-.63-.31-1.71-1.51-1.27a44.51,44.51,0,0,0-4.59,1.73c-6.62,3.25-13.41,5.85-20.93,5.85-1.58-.53-3.32-.47-4.8-1.35-1.07-.86-2.52-1.26-3.11-2.69-1.23-3-2.49-6-3.73-9,.41-3.78,2.19-7,4-10.25a1.35,1.35,0,0,1,.72-.53c3.32-1.08,5.31-3.75,7.51-6.18a18.82,18.82,0,0,1,2.44-2.46,20.38,20.38,0,0,0,4.34-5.1c2.08-3.06,4.38-6,6.58-9l3.37-4.13a.41.41,0,0,0,.23-.19l.47-.49c.68-.65,1.62-1,2.1-1.87.42-.3,1-.47,1.07-1.08.37-.39,1.06-.4,1.26-1a6.44,6.44,0,0,0,2.21-3c-2.82,2.05-6.39,2.26-9.31,4s-6.27,3.24-8.56,5.87c-3.16,3.62-7,6.46-10.56,9.54a32.32,32.32,0,0,1-21.54,8.12,2.41,2.41,0,0,0-1.53-.45,15.05,15.05,0,0,1-6.21-1.36l-5.11-2.66,0,0-.39-.39,0,0a.77.77,0,0,0-.76-.4l0,0a.64.64,0,0,0-.39-.64l-2.56-3.12a10,10,0,0,1-1.11-5.09c.15-1.32.26-2.65.38-4,1.31-4.73,2.84-9.36,6.18-13.12a43.57,43.57,0,0,1,14.77-10.56c1.38-.63,2.9-1,4-2.05a2.22,2.22,0,0,0,.74-2.87c-1.32-3.7-1.58-7.66-2.66-11.42l-.18-1.5a1.65,1.65,0,0,0,0-.54c-.31-.73.42-2-.69-2.21s-1.14,1.07-1.65,1.68c-6,7.07-12.55,13-22.74,12.28a.28.28,0,0,0-.33,0l-2.22-.13,0,0c-.12-.4-.48-.3-.76-.35l-4.4-2.22,0,0-.43-.38c-2.79-3.67-4.61-7.7-4.45-12.43l.06-.83.07-.9a108.63,108.63,0,0,1,5.89-15.73,54.05,54.05,0,0,1,8.57-12.26c3.24-3.64,6.48-7.27,10.61-10,3.8-2.48,4.76-5.86,3.61-10.23A30.56,30.56,0,0,1,107,159.2a8.49,8.49,0,0,1,5.89-7.05,8.11,8.11,0,0,0,4.75-4c1.42-2.45,3.5-5.28,7.21-5.35a11.73,11.73,0,0,0,8.33-4.05,13.94,13.94,0,0,1,4-2.91c6.56-3.17,11.74-8,16.64-13.27,2-.92,1.14-2.65,1.14-4.14q0-.87,0-1.74a14.75,14.75,0,0,0,.11-1.64c0-.45.31-1.08-.28-1.3s-.78.44-1,.8a21.42,21.42,0,0,1-5.77,5.52,104,104,0,0,0-8.43,6.1,11,11,0,0,1-5,2.44l-.53.15-.54,0a54.92,54.92,0,0,0-12.46-.59l-2.21-.64a8,8,0,0,1-2-4.19c.36-3.29,2.62-5.49,4.54-7.89,1-1.27,2.53-2,3.4-3.46,2.09-.73,3.75-2.21,5.67-3.25l2.65-1.17.4-.35a5.83,5.83,0,0,0,1-.33c5-2.72,9.74-6,15.42-7.4a2.11,2.11,0,0,0,1.47-.74c.6,0,.93-.5,1.38-.77l2.7-1.7c5.39-2.42,11.1-4,16.54-6.3,4.48-1.88,8.45-4.84,13.15-6.3,2.55-.8,5-1.87,7.49-2.88,1.07-.43,2.07-1,3.1-1.54a6.26,6.26,0,0,0,2.65-1.69c.54-.37,1.35-.76,1.28-1.38-.11-.87-1.09-.55-1.69-.64a87.83,87.83,0,0,1-9.62-2.19c-2.75-.76-5.43-1.86-8.35-1.87L176,71c-.2-.32-1.59-.53-.13-1,.92-.31,1.9-.44,2.82-.76.44-.16,1.53.11.89-1.16-.26-.51.6-.38.95-.38,7.24-.11,14.26-1.65,21.26-3.36a5,5,0,0,0,.67-.27.75.75,0,0,0,.32-.06,1.68,1.68,0,0,0,1.15-.3l.69-.11,2.19-.43a7.48,7.48,0,0,0,2.58-.35l.71,0c5.9-.13,11.73.69,17.57,1.29,1.61.17,3.43-.3,4.86.94a1.21,1.21,0,0,0,.65.82l.42.39h0c0,.62.44,1,.76,1.41a63.72,63.72,0,0,1,6.44,9.26,13.66,13.66,0,0,1-.89,12.82,8.13,8.13,0,0,1-5.59,4.05c-2.19.5-4.38.1-6.57.08l-1.12-.06-1.44-.1,0,0,0-.6c.7-1.11.33-1.78-.87-2.11-.69-.19-1.37-.4-2.06-.6l0,0-.39-.33a3.7,3.7,0,0,1-1.69-2.43,1.12,1.12,0,0,0-.85-1.07c-1.88-.27-3-1.68-4.34-2.76l-.46-.4,0,0c-.85-1-1.83-2.28-3-2.36-3.14-.22-6.3-.74-9.45-.24-4.94.77-9.54,2.73-14.55,4.33,3.46.45,6.56-1.09,9.72-.27a18.05,18.05,0,0,0,4.09,1.5h0a7.72,7.72,0,0,0,3.32,1.48h0c2.36,1.57,4.81,3,6.6,5.3L212.36,97c0,1,0,2.07-.07,3.1-.25,2.86-3.48,6.15-6.27,6.46a.29.29,0,0,0-.33,0c-3.2.1-6.62-.9-9.25,1.95a.71.71,0,0,1-.68.09c-2.27-1.46-3.84.21-5.34,1.37-2.5,1.94-4.85,4-7.94,5.05a3.91,3.91,0,0,0-1.34.92c-.92.86-1.2,1.71.27,2.33a2.06,2.06,0,0,0,1.88.67,1.74,1.74,0,0,0,1.81,0l1.14-.11a23.65,23.65,0,0,0,5.12-1.08l1.09-.08c5.27,0,10.55.12,15.82.09a7.72,7.72,0,0,1,4.33,1c2.08,1.94,4.52,3.46,6.46,5.56a14.61,14.61,0,0,1,1.17,3.38c.31,2.32-1.14,3.68-2.52,5.29a23.88,23.88,0,0,1-15.58,8.33,4.67,4.67,0,0,0-2.26.65c-1.22.89-1.17,1.93.12,2.76a2.67,2.67,0,0,0,1.64.62c.55.42,1.19.23,1.8.27a4,4,0,0,0,3.69,0c2.48-1.66,5.27-2.75,7.72-4.43a1.94,1.94,0,0,0,1.47-.77h0l.39-.38h0a31.12,31.12,0,0,0,6.64-4.74c5.18-3.3,10.17-6.93,16.14-8.79h.16l.16,0,1.83-.13a21.8,21.8,0,0,1,3.71,1l.27.24.09.08a24.37,24.37,0,0,1,7.66,8.53,5.92,5.92,0,0,0,.18,1.25c1.53,4.13-.1,7.25-3.08,10-.51.47-1.57.8-1.33,1.54s1.29.72,2,.9a3.35,3.35,0,0,0,.72,0l2.07.24,6.92,1.48h0c3.48.83,7,1.33,10.48.16M139,158.53l0,0c.39,0,.81,0,1-.42.48-.28,1.08-.4,1.31-1l.53-.16.47-.25a6.44,6.44,0,0,0,2.17-1.16l5.12-2.57,5.11-2.39-.25-.5c-2.08.14-3.48,1.85-5.33,2.51-3.78,1.17-7.67,1.91-11.53,2.77a31,31,0,0,0-6.76,2.2,8.15,8.15,0,0,0-4.83,6c-.14.74-.74,1.71-.06,2.18s1-.76,1.69-1l.67-.44a1.73,1.73,0,0,0,1.35-.4c3.31-1.13,6.08-3.2,9-5.09l0,0,.4-.37M92.54,221.22l.91.37c.57.51,1.23.33,1.88.26H96l.17,0,.17,0c1.36-.13,2.73-.25,3.78-1.3a3.52,3.52,0,0,0,1.87-.64c3.79-1.94,6.78-4.9,9.83-7.77a2.18,2.18,0,0,0,1.19-2.58c-1.66-4.62-1.83-9.48-2.46-14.27-.26-2-.19-4.12-1.17-6l-.09-1.37a2.37,2.37,0,0,0,.11-1.88l-.19-1.47a5.44,5.44,0,0,0-.57-3.34c-.32-.5-.62-.72-1.13-.22l-5.92,5.82-.81.72a44.38,44.38,0,0,0-8.45,9.5l-.33.45a.62.62,0,0,0-.41.63l-.33.49c-.14,0-.2.09-.16.23a8.65,8.65,0,0,0-1.49,2.87,23.79,23.79,0,0,0-2.52,8.88c-.3,2.66-.22,5.24,1.55,7.46a2.78,2.78,0,0,0,1.48,1.72v0l.39.5a2.57,2.57,0,0,0,2,1Zm36.35-54.7-.6.44c-1.53,1-3.39,1.8-3.48,4-.24,5.54-.47,11.07-.63,16.61A32.83,32.83,0,0,0,125.46,199c.12.38-.17,1.6,1,1a1.07,1.07,0,0,0,.83-.71l.62-.44a3.16,3.16,0,0,0,1.45-1c4.18-2.35,8.64-4.14,12.7-6.76,6.48-4.18,12.95-8.45,20.45-10.71a8,8,0,0,0,1.3-.66c1.37-.8,1.38-2.18,1.47-3.51.13-1.88-.25-3.8.24-5.65,1.46-5.51.05-10.48-2.77-15.2a2.8,2.8,0,0,0-.6-1.59l-.18-.35c-.22-1.91-.78-2.35-2.4-1.61a21.75,21.75,0,0,1-4.9,1.48,18.38,18.38,0,0,0-7.56,3.47l-7.35,3.74-.51.3h0a29.37,29.37,0,0,0-8.9,4.73c-.71,0-1.08.6-1.53,1m102.54-34-.48,0c-.6-.05-1,.35-1.49.61-4,2.17-7.58,5-11.34,7.62a60.8,60.8,0,0,1-7.11,4.1c-.35.17-.92.28-.73.85s.62.3,1,.29c1.34,0,2.68-.06,4-.09h1l.74.1.74.09a3.78,3.78,0,0,0,2.56.35c.08.55-.29.68-.71.75l-6.25.07-8.8.89c-.82,0-1.92-.51-2.37.21s.7,1.26,1,1.95a5.49,5.49,0,0,0,.63.87c.67,1.67,1.36,3.33,2,5,.16.4.64.95.06,1.27-.88.5-.41.79.06,1.13.63.45,1.29.88,1.93,1.32a5.5,5.5,0,0,1,1.44,2.65c.19,1.44,1,1.61,2.2,1.06a1,1,0,0,0,1-.67,1.4,1.4,0,0,0,.87-1.13,1.93,1.93,0,0,0,.66-.27c3.29-3.24,6.83-6.22,9.92-9.66a3.93,3.93,0,0,0,2.19-1.5,4.13,4.13,0,0,0,1.4-1.35c1-1.2.61-1.76-.84-1.89-.46,0-1.18.23-1.2-.66,1.59.12,3.41.81,4.71-.29a17.86,17.86,0,0,0,5.54-7.44c.94-1.1.68-2.41.67-3.68l-.16-1.22c-.69-2.67-1.31-3-3.75-1.89l-1.14.51m-9.85,105.27.65-.47,1.35-1c4.54-2.54,9.22-4.71,14.43-5.51a32.13,32.13,0,0,0,3.55-.84c1.56-.43,2.15-1.43,2.26-3.09.15-2.37-.85-4.55-.81-6.87q-.06-.94-.12-1.87a.54.54,0,0,0-.15-.67l-.08-.73c-.12-.88-.31-1.5-1.5-1.14-3.14.94-6.32,1.76-9.48,2.63-4,1.09-8.07,1.91-11.71,4-2.83,1.61-3.32,3.87-1.51,6.76a1.77,1.77,0,0,0,.82,1l.72,1.1c0,2-.07,4-.06,6,0,.56-.37,1.35.28,1.65s.82-.72,1.36-.92M243.07,204h0a48.83,48.83,0,0,0,9.2-4.4,5.12,5.12,0,0,0,2-1c.48-.23,1.17-.4,1-1.05s-.91-.43-1.41-.46a26.57,26.57,0,0,0-5.84.29c-3.4.54-6.26,2-8,5.13a10.15,10.15,0,0,1-3.54,3.62,32.92,32.92,0,0,1-11.81,5.14,21.64,21.64,0,0,0-4.88,1.48,6.43,6.43,0,0,0-3.45,3.82c-.13.36-.48.82,0,1.17s.7,0,1-.13c2-.7,3.58-2.07,5.41-3q9.07-4.73,18.11-9.5c.71,0,1.19-.57,1.81-.81l.44-.32m-90.53,68.25-.23.34a71.57,71.57,0,0,0-6.37,14.22c-.3.93-1.11,2.49-.41,2.76.91.36,1.57-1.13,2.22-2l.7-.39a4.77,4.77,0,0,0,1.74-1.24,11.84,11.84,0,0,0,3.49-2.62c3.6-3.52,7-7.29,11.23-10.07.43-.28.35-.74.5-1.12,1.23-3,.44-6.15.53-9.23l.1-1.8c.15-.84.33-1.67.45-2.51.05-.38.31-.9-.29-1.08s-.79.14-1.06.51a27.27,27.27,0,0,1-4.25,4.22c-2.2,1.72-4.63,3.22-5.86,5.89l-.28.37-.31.41a12.27,12.27,0,0,0-1.87,3.28Zm14.56-162.7a1.77,1.77,0,0,0,2.29.49c2-1.7,4.63-2.56,6.38-4.61.57-.5,1.28-.89,1.38-1.76.45-.51,1.39-.48,1.54-1.36-5.75-.83-14,2.24-16.22,6.12l2.85.64c.49.55,1.19.34,1.79.48m-26.62.64c1.26-.76,2.26-2.23,4.13-1.16.64.36,1-.18.61-.9s-1-1.11-.75-1.95c3.19-.95,5.57-3.13,8.06-5.17,1.31-.54,2.07-1.68,3.24-2.38l-.33-.38-4,2.42c-.64.47-1.62.21-2.12,1-4,.32-7.18,2.4-10.33,4.6-3.35,1.74-6.71,3.44-10,5.25-1.32.72-2.64,1.56-3.12,3.16a12.82,12.82,0,0,0-.77,1.78c-.49,1.82-.26,2,1.69,1.59.42.2.76-.05,1.13-.17s1.06.11,1.49-.32a20.09,20.09,0,0,0,10.4-6.63l.24-.26.45-.47m99.68,46.56a.56.56,0,0,0,.31-.05l1.42-.09c5.19.08,10.25-1.16,15.39-1.56.3,0,.6-.07.9-.14.5-.11,1.26-.06,1.23-.74s-.74-.52-1.18-.62a30.86,30.86,0,0,0-7.08-1.23c-.53,0-1.06-.13-1.57-.2-3.06-.4-6.3-.33-8.8,1.38-2.1,1.44-4,3.12-6.41,4.06-.38.15-1,.37-.66.87s.77.13,1.15-.07a16.22,16.22,0,0,1,4.91-1.37l.4-.25m-74.4,52.42a2.08,2.08,0,0,0,1-2c-.61-2.63-.33-5.47-1.8-7.91-.4-1.27-.77-2.55-1.23-3.8-.16-.45,0-1.27-.8-1.22s-.66.79-.82,1.27a11.92,11.92,0,0,1-2,4,2.24,2.24,0,0,0-.47,2.34,14,14,0,0,1-1.1,4.21c-1.28,3-2.64,6-3.88,9-.4,1-1.48,2.42-.59,3,.69.45,1.69-1.16,2.46-2,.83.05,1.17-.74,1.8-1a6.49,6.49,0,0,0,2.64-1.77,16.89,16.89,0,0,0,4.81-4.14m-59.84,55.69.39.57c.63,1.45,1.75.83,2.76.65a8,8,0,0,0,4.79-1.55c3.45-2.67,6.77-5.48,10.14-8.24,1.29-1,.46-1.7-.36-2.4s-.62-2.21-2.14-1.72a11.21,11.21,0,0,1-3.43.1c-5.29.07-9.77,1.87-12.7,6.49-1.72,2.73-1.55,3.53.55,6.12Zm28.63-32.51a3,3,0,0,0,1.53-1.12,27.13,27.13,0,0,0,12.86-13.41c2.27-5.24,4.82-10.37,7.2-15.56,1.33-2.89,3.46-5.29,4.85-8.13a4.13,4.13,0,0,0,1-2.3,3.87,3.87,0,0,0,.51-1.93,7.23,7.23,0,0,0,.28-.87c.14-.7.68-1.65.12-2.07s-1.5.24-2.1.69a51.57,51.57,0,0,1-8.22,4.76,25.38,25.38,0,0,0-7.58,5.36,3.56,3.56,0,0,1-3,1.53c-.65-.06-.93.49-1.06,1.07a4.63,4.63,0,0,1-1.49,2.24,26,26,0,0,1-7.35,5.36,6.64,6.64,0,0,0-4,4.88c-.57,2.64.14,5.09.49,7.6a39.91,39.91,0,0,0,2.65,10.8c.39.89.61,2.21,2.11,2.08a2.74,2.74,0,0,0,1.12-1m-2.2-88.78c8.4-3.06,15.13-8.62,22.6-12.91a1.35,1.35,0,0,0,.75-1.82c-.33-.73-1.1-.31-1.63-.17a16.58,16.58,0,0,0-6.32,3.61,63.51,63.51,0,0,1-13.08,9c-.92.45-2,1-2.32,2.28m30.41,86.63-.31-.53c-1.78,1-3.87,1.7-5.29,3.07-3.69,3.58-8.19,5.44-12.94,6.88a4,4,0,0,0-2.84,3c-.12.4-.49.82-.07,1.17s.82,0,1.15-.24a28.28,28.28,0,0,1,7-3.63c5.21-2.23,8.77-6.64,13.34-9.71M198.62,128.7c-1.79.31-3.59.58-5.37,1-.84.18-2.07.35-1.6,1.62a1.81,1.81,0,0,0,2.55,1.08c1.61-.7,3.17-1.51,4.76-2.25.44-.21.71-.49.57-1s-.55-.36-.92-.42m-41.78-15.52A4.79,4.79,0,0,0,158,111.1c.18-.49-.2-.62-.6-.58-1.15.11-.8,1.16-1.06,1.8-.13.31-.14.73.51.86" transform="translate(-78.7 -62.75)"/><path class="cls-1" d="M97.5,83.44c.21-.57.44-1.13.62-1.72,1.63-5.4,5.4-8.22,10.86-8.91,3.79-.48,7.54-1.34,11.41-1.21a3.11,3.11,0,0,0,2.8-1.44,2.86,2.86,0,0,1,3-1.43c1.76.31,3-1.29,4.73-1l.77,1c.85,1.33,2.29,1.51,3.64,1.86h0a1.54,1.54,0,0,0,1.48.75h0a1.94,1.94,0,0,0,1.12,1L140,74.2l.37,0h0a.34.34,0,0,0,.38.37h0c0,.55.2.79.75.73h0a.33.33,0,0,0,.37.37h0a.33.33,0,0,0,.37.36h0a.32.32,0,0,0,.36.36h0c.42,1.31,1.58,2,2.44,2.95L147,82v0l.38.38h0l2.81,5.82c1.94,7.73-1.22,10.32-6.6,12.84-2.2,1-4.5,1.85-6.76,2.77a5,5,0,0,0-2.05,1.15,5,5,0,0,1-4.23,1.67c-.93-.42-1.85-.83-2.77-1.26a1.89,1.89,0,0,0-2,.11,25.75,25.75,0,0,1-13.91,3.75,16.32,16.32,0,0,1-4-2.82c-1.56-1.32-3.18-2.56-4.78-3.84-.39-1.73-1.5-3.14-2-4.83a14.52,14.52,0,0,0-2.47-5.24A7.87,7.87,0,0,1,96.78,86l.32-1.15a2.17,2.17,0,0,0,.4-1.42" transform="translate(-78.7 -62.75)"/><path class="cls-1" d="M432.27,113.45l1.82-.08c1.07.2,2.14.36,3.19.59,2.58.57,5.15,1.17,7.73,1.75a1,1,0,0,0,.85.35l.11,0,.11,0,.53.35.1,0,.1,0,.55.35.09,0h.09c1.39,1.51,3.42,2.17,4.84,3.64a2.49,2.49,0,0,0,1,1.12l.53.35,0,0c0,.26.12.39.38.38l0,0c0,.26.1.41.38.38h0a4.94,4.94,0,0,0,1.61,2.62,27.72,27.72,0,0,1,2.2,5.46c.65,6.93-2.73,12.39-9.24,14.95-.4.16-.92.29-1,.71-.25,1.36-1.3,1.26-2.24,1.3-1.27.05-2.55,0-3.82,0a4.42,4.42,0,0,0-3.07-.85,20.57,20.57,0,0,1-9.56-2.51,4.23,4.23,0,0,0-3.1-.7,2.31,2.31,0,0,1-1.59-1.22c-.79-2.07-1.5-2.35-5-2.05l-1.47-.16v0l0-.37c-.52-.62-.08-1,.49-1.44H416.9c-.5-.8-.33-1.89-1.11-2.58a1,1,0,0,0,.34-.86c1.56.11,2.82,1.89,4.83.86a30.44,30.44,0,0,0-4.51-2.35c-1-.35-2.41-.23-2.23-2,0-.31-.4-.37-.7-.43-1.07-.19-2.13-.4-3.2-.6-1-.53-1.29-1.76-2.17-2.43-.08-1-.81-1.63-1.2-2.45-.21-.93-.52-1.94,1.09-1.21a7.27,7.27,0,0,0,3,1.71c.42.13,1,.45,1.29-.11s-.22-1-.61-1.21c-1.14-.68-2.33-1.26-3.5-1.88-.37-.52-1-1.09-.65-1.71s1.39-.42,2.13-.43c1.46,1.27,3.23,1.16,5,1.09.54,0,1.25,0,1.13-.77s-.77-.33-1.2-.35c-1.66-.08-3.4.27-4.8-1a2.55,2.55,0,0,1-.62-1.41c-.17-1.12.4-1,1.09-.68a1.48,1.48,0,0,0,1.65,1.1c.72-.13.52-1,.67-1.54l.61,0c2.42,1.8,3.81,1.88,6,.37,1.71-.43,3.45-.82,4.56-2.4a1.73,1.73,0,0,1,1.77-.67,13,13,0,0,0,6.06-1l.71-.07" transform="translate(-78.7 -62.75)"/><path class="cls-1" d="M477.28,156.3a5.29,5.29,0,0,1-2.52.39c-.73-.74-1-1.33.45-1.36.71,0,1.42,0,2.13.05q0,.46-.06.92" transform="translate(-78.7 -62.75)"/><path class="cls-1" d="M449,164.38h-.13l-.12,0-.49.33-1.28,0c.18-1.28,1.6-.71,2.15-1.42l-.14,1" transform="translate(-78.7 -62.75)"/></svg>